<svg width="22" height="20" viewBox="0 0 22 20" fill="none" xmlns="http://www.w3.org/2000/svg">
<path d="M20.8542 2.33628L20.6823 3.97168H5.55728L5.38541 2.33628L3.09375 0H0V1.16814H2.6354L4.29688 2.86194L5.44271 13.9009H20.7969L22 2.45309L20.8542 2.33628ZM6.47395 12.7327L5.67187 5.13982H20.5677L19.7656 12.7327H6.47395Z" fill="#95A3BA"/>
<path d="M9.39604 15.1274C8.13562 15.1274 7.10437 16.1787 7.10437 17.4637C7.10437 18.7487 8.13562 19.8 9.39604 19.8C10.6565 19.8 11.6877 18.7487 11.6877 17.4637C11.6877 16.1787 10.6565 15.1274 9.39604 15.1274ZM9.39604 18.6318C8.76583 18.6318 8.2502 18.1062 8.2502 17.4637C8.2502 16.8212 8.76583 16.2956 9.39604 16.2956C10.0262 16.2956 10.5419 16.8212 10.5419 17.4637C10.5419 18.1062 10.0262 18.6318 9.39604 18.6318Z" fill="#95A3BA"/>
<path d="M16.7861 15.1274C15.5257 15.1274 14.4944 16.1787 14.4944 17.4637C14.4944 18.7487 15.5257 19.8 16.7861 19.8C18.0465 19.8 19.0778 18.7487 19.0778 17.4637C19.0778 16.1787 18.0465 15.1274 16.7861 15.1274ZM16.7861 18.6318C16.1559 18.6318 15.6403 18.1062 15.6403 17.4637C15.6403 16.8212 16.1559 16.2956 16.7861 16.2956C17.4163 16.2956 17.9319 16.8212 17.9319 17.4637C17.9319 18.1062 17.4163 18.6318 16.7861 18.6318Z" fill="#95A3BA"/>
</svg>
