<svg width="17" height="19" viewBox="0 0 17 19" fill="none" xmlns="http://www.w3.org/2000/svg">
<path d="M13.0724 17.469H1.17241V1.23105H13.0724V5.3345H14.2448V0.527598C14.2448 0.234494 14.0103 1.52588e-05 13.7172 1.52588e-05H0.351728C0.175866 1.52588e-05 0 0.175881 0 0.351743V18.1724C0 18.3483 0.175866 18.5242 0.351728 18.5242H13.8345C14.069 18.5242 14.2448 18.3483 14.2448 18.1138V13.1897H13.0724V17.469Z" fill="#95A3BA"/>
<path d="M17 8.79311H13.6L14.3621 8.03104L13.5414 7.21036L11.3724 9.37931L13.5414 11.5483L14.3621 10.7276L13.6 9.96552H17V8.79311Z" fill="#95A3BA"/>
<path d="M7.73797 8.79311H6.56555V9.96552H7.73797V8.79311Z" fill="#95A3BA"/>
<path d="M10.0827 8.79311H8.91028V9.96552H10.0827V8.79311Z" fill="#95A3BA"/>
</svg>
