<svg width="19" height="12" viewBox="0 0 19 12" fill="none" xmlns="http://www.w3.org/2000/svg">
<path d="M3.93438 4.65576C3.40978 4.65576 2.95074 4.98364 2.68843 5.37709H0.0654297V6.68859H2.68843C2.95074 7.14762 3.40978 7.40993 3.93438 7.40993C4.45898 7.40993 4.918 7.08205 5.1803 6.68859H18.0986V5.37709H5.11472C4.918 4.91807 4.45898 4.65576 3.93438 4.65576Z" fill="#95A3BA"/>
<path d="M15.0823 0.72133C14.82 0.262305 14.3609 0 13.8363 0C13.6396 0 13.4429 0.0655831 13.2462 0.131158C12.8527 0.196733 12.5248 0.45903 12.3281 0.72133H0V2.03283H12.3281C12.5248 2.36071 12.8527 2.62301 13.2462 2.62301C13.4429 2.68858 13.6396 2.75416 13.8363 2.75416C14.3609 2.75416 14.82 2.42628 15.0823 2.03283H18.0987V0.72133H15.0823Z" fill="#95A3BA"/>
<path d="M13.8362 9.24561C13.3116 9.24561 12.8526 9.57349 12.5903 9.96694H0.0654297V11.2784H12.5903C12.8526 11.7375 13.3116 11.9998 13.8362 11.9998C14.3608 11.9998 14.8198 11.6719 15.0821 11.2784H18.0986V9.96694H15.0821C14.8198 9.57349 14.3608 9.24561 13.8362 9.24561Z" fill="#95A3BA"/>
</svg>
