<svg width="27" height="36" viewBox="0 0 27 36" fill="none" xmlns="http://www.w3.org/2000/svg">
<path d="M19.9215 7.23248V5.03503H17.834C17.834 2.7277 15.8563 0.75 13.3292 0.75C11.0219 0.75 9.04419 2.61783 9.04419 5.03503H6.95658V7.23248H0.583984V35.25H26.4041V7.23248H19.9215ZM13.4391 2.83757C14.6477 2.83757 15.6365 3.82643 15.6365 5.03503H11.2416C11.2416 3.82643 12.2305 2.83757 13.4391 2.83757ZM17.7241 7.1226V9.32005H9.15404V7.1226H17.7241ZM24.3164 33.0525H2.67156V9.32005H6.95658V11.5175H19.9215V9.32005H24.3164V33.0525Z" fill="#FF3800"/>
<path d="M22.0093 16.9023H4.86914V19.0998H22.0093V16.9023Z" fill="#FF3800"/>
<path d="M22.0093 21.1875H4.86914V23.385H22.0093V21.1875Z" fill="#FF3800"/>
<path d="M22.1191 25.582H4.86914V27.7795H22.1191V25.582Z" fill="#FF3800"/>
</svg>
