<svg width="24" height="36" viewBox="0 0 24 36" fill="none" xmlns="http://www.w3.org/2000/svg">
<path d="M20.5981 4.29672C20.4907 4.18924 20.4906 4.18926 20.3832 4.08178C18.2336 1.93225 15.3318 0.75 12.215 0.75C9.09815 0.75 6.08879 1.93226 3.83178 4.18926C1.78973 6.23132 0.5 9.13319 0.5 12.25C0.5 13.7547 1.03741 15.6892 2.0047 17.9463C4.90657 24.8248 11.0327 33.5304 11.2477 33.9603L12.1075 35.25L12.9673 33.9603C13.1822 33.6378 19.3084 24.8248 22.2103 17.9463C23.1776 15.7967 23.715 13.7547 23.715 12.25C23.9299 9.24067 22.6402 6.44625 20.5981 4.29672ZM20.2757 17.6238C20.2757 17.7313 20.2757 17.7313 20.2757 17.6238C18.1262 22.3528 14.472 28.1566 12.215 31.5958C8.8832 26.6519 2.64953 16.549 2.64953 12.3575C2.64953 7.09111 6.94862 2.89953 12.215 2.89953C14.7944 2.89953 17.2664 3.97431 18.986 5.69393C20.7056 7.41356 21.7804 9.77802 21.7804 12.3575C21.7804 13.7547 21.243 15.5818 20.2757 17.6238Z" fill="#FF3800"/>
<path d="M12.3224 8.8125C9.95795 8.8125 8.13086 10.7471 8.13086 13.0041C8.13086 15.2611 10.0654 17.1957 12.3224 17.1957C14.6869 17.1957 16.5141 15.2611 16.5141 13.0041C16.5141 10.7471 14.5794 8.8125 12.3224 8.8125ZM12.3224 15.1536C11.1402 15.1536 10.1729 14.1863 10.1729 13.0041C10.1729 11.8218 11.1402 10.8545 12.3224 10.8545C13.5047 10.8545 14.472 11.8218 14.472 13.0041C14.472 14.1863 13.3972 15.1536 12.3224 15.1536Z" fill="#FF3800"/>
</svg>
