<svg width="32" height="33" viewBox="0 0 32 33" fill="none" xmlns="http://www.w3.org/2000/svg">
<path d="M23 16.5H19C18.4477 16.5 18 16.9477 18 17.5V25.5C18 26.0523 18.4477 26.5 19 26.5H23C24.1046 26.5 25 25.6046 25 24.5V18.5C25 17.3954 24.1046 16.5 23 16.5ZM23 24.5H20V18.5H23V24.5Z" fill="#4C5D75"/>
<path d="M32 18.5V16.5H27C26.4477 16.5 26 16.9477 26 17.5V26.5H28V22.5H32V20.5H28V18.5H32Z" fill="#4C5D75"/>
<path d="M2 29.5V3.50001C2 2.9477 2.44769 2.50002 3 2.50002H18V6.50001C18 7.60457 18.8954 8.50001 20 8.50001H24V11.5H26V7.50001C26.0016 7.2342 25.8972 6.9787 25.71 6.79001L19.71 0.790016C19.5213 0.602828 19.2658 0.498516 19 0.500016H3C1.34312 0.500016 0 1.8432 0 3.50001V29.5C0 31.1569 1.34312 32.5 3 32.5H10V30.5H3C2.44775 30.5 2 30.0523 2 29.5Z" fill="#4C5D75"/>
<path d="M15 16.5H11C10.4477 16.5 10 16.9477 10 17.5V26.5H12V23.5H15C16.1046 23.5 17 22.6046 17 21.5V18.5C17 17.3954 16.1046 16.5 15 16.5ZM15 21.5H12V18.5H15V21.5Z" fill="#4C5D75"/>
</svg>
