<svg width="18" height="18" viewBox="0 0 18 18" fill="none" xmlns="http://www.w3.org/2000/svg">
<path d="M15.9697 17.0303C16.2626 17.3232 16.7374 17.3232 17.0303 17.0303C17.3232 16.7374 17.3232 16.2626 17.0303 15.9697L15.9697 17.0303ZM13.3272 12.2665C13.0343 11.9737 12.5594 11.9737 12.2665 12.2665C11.9737 12.5594 11.9737 13.0343 12.2665 13.3272L13.3272 12.2665ZM13.9856 8.11781C13.9856 11.3585 11.3585 13.9856 8.11781 13.9856V15.4856C12.1869 15.4856 15.4856 12.1869 15.4856 8.11781H13.9856ZM8.11781 13.9856C4.87711 13.9856 2.25 11.3585 2.25 8.11781H0.75C0.75 12.1869 4.04868 15.4856 8.11781 15.4856V13.9856ZM2.25 8.11781C2.25 4.87711 4.87711 2.25 8.11781 2.25V0.75C4.04868 0.75 0.75 4.04868 0.75 8.11781H2.25ZM8.11781 2.25C11.3585 2.25 13.9856 4.87711 13.9856 8.11781H15.4856C15.4856 4.04868 12.1869 0.75 8.11781 0.75V2.25ZM17.0303 15.9697L13.3272 12.2665L12.2665 13.3272L15.9697 17.0303L17.0303 15.9697Z" fill="#95A3BA"/>
</svg>
