<svg width="30" height="19" viewBox="0 0 30 19" fill="none" xmlns="http://www.w3.org/2000/svg">
<path d="M22.8208 9.20258L20.1392 11.5277V14.8069L23.8323 11.6053L30 16.2037V13.14L24.63 9.1451C24.3784 8.95437 24.0492 8.85376 23.7117 8.86449C23.3742 8.87521 23.0548 8.99642 22.8208 9.20258ZM22.8208 2.04055L7.27767 15.5225L0 9.50148V12.706L6.37814 17.9827C6.62262 18.1885 6.95326 18.3042 7.29803 18.3046C7.47405 18.304 7.64817 18.2737 7.8102 18.2155C7.97224 18.1573 8.11892 18.0723 8.24168 17.9654L23.8323 4.44322L30 9.04164V5.98082L24.63 1.98019C24.3776 1.7905 24.0483 1.69084 23.711 1.70209C23.3738 1.71334 23.0548 1.83463 22.8208 2.04055ZM7.27767 8.65078L0 2.62972V5.83424L6.37814 11.1138C6.50156 11.2169 6.64791 11.2982 6.8087 11.353C6.9695 11.4078 7.14154 11.4351 7.31487 11.4332C7.4882 11.4313 7.65938 11.4004 7.81847 11.3421C7.97756 11.2838 8.1214 11.1994 8.24168 11.0937L17.2403 3.29362V0L7.27767 8.65078Z" fill="#00F0A9"/>
</svg>
