<svg width="16" height="17" viewBox="0 0 16 17" fill="none" xmlns="http://www.w3.org/2000/svg">
<path d="M5.91683 15.5833V16.3333C6.33104 16.3333 6.66683 15.9975 6.66683 15.5833H5.91683ZM10.0835 15.5833H9.3335C9.3335 15.9975 9.66928 16.3333 10.0835 16.3333V15.5833ZM14.6668 15.5833V16.3333C15.081 16.3333 15.4168 15.9975 15.4168 15.5833H14.6668ZM14.1785 7.25L14.7088 6.71967L14.7088 6.71967L14.1785 7.25ZM8.58933 1.66083L8.059 2.19116L8.059 2.19116L8.58933 1.66083ZM7.411 1.66083L7.94133 2.19116L7.942 2.19048L7.411 1.66083ZM1.82183 7.25L1.2915 6.71967L1.2915 6.71967L1.82183 7.25ZM1.3335 15.5833H0.583496C0.583496 15.9975 0.919283 16.3333 1.3335 16.3333L1.3335 15.5833ZM6.66683 15.5833V11.8333H5.16683V15.5833H6.66683ZM6.66683 11.8333C6.66683 11.0967 7.26354 10.5 8.00016 10.5V9C6.43512 9 5.16683 10.2683 5.16683 11.8333H6.66683ZM8.00016 10.5C8.73678 10.5 9.3335 11.0967 9.3335 11.8333H10.8335C10.8335 10.2683 9.56521 9 8.00016 9V10.5ZM9.3335 11.8333V15.5833H10.8335V11.8333H9.3335ZM10.0835 16.3333H14.6668V14.8333H10.0835V16.3333ZM15.4168 15.5833V8.42833H13.9168V15.5833H15.4168ZM15.4168 8.42833C15.4168 7.78753 15.1618 7.17266 14.7088 6.71967L13.6482 7.78033C13.8202 7.95234 13.9168 8.1858 13.9168 8.42833H15.4168ZM14.7088 6.71967L9.11966 1.1305L8.059 2.19116L13.6482 7.78033L14.7088 6.71967ZM9.11966 1.1305C8.50131 0.512152 7.49841 0.511174 6.87999 1.13118L7.942 2.19048C7.97358 2.15883 8.02568 2.15785 8.059 2.19116L9.11966 1.1305ZM6.88067 1.1305L1.2915 6.71967L2.35216 7.78033L7.94133 2.19116L6.88067 1.1305ZM1.2915 6.71967C0.838506 7.17266 0.583496 7.78753 0.583496 8.42833H2.0835C2.0835 8.1858 2.18015 7.95234 2.35216 7.78033L1.2915 6.71967ZM0.583496 8.42833V15.5833H2.0835V8.42833H0.583496ZM1.3335 16.3333H5.91683V14.8333H1.3335V16.3333Z" fill="#95A3BA"/>
</svg>
