<svg width="21" height="18" viewBox="0 0 21 18" fill="none" xmlns="http://www.w3.org/2000/svg">
<path d="M18.5472 1.61011C17.4944 0.557347 16.132 0 14.7077 0C13.2833 0 11.9209 0.557347 10.8682 1.61011L10.0631 2.41516L9.2581 1.61011C8.20534 0.557347 6.84294 0 5.41862 0C3.9943 0 2.6319 0.557347 1.57914 1.61011C-0.526379 3.71562 -0.526379 7.18353 1.57914 9.28905L9.62965 17.3396C9.7535 17.4634 9.93929 17.5254 10.0631 17.5254C10.187 17.5254 10.3728 17.4634 10.4966 17.3396L18.5472 9.28905C20.6527 7.18353 20.6527 3.71562 18.5472 1.61011ZM17.6802 8.42208L10.0631 16.0391L2.44613 8.42208C0.83603 6.81198 0.83603 4.14911 2.44613 2.47708C3.25118 1.67203 4.30393 1.23854 5.41862 1.23854C6.53331 1.23854 7.58606 1.67203 8.39111 2.47708L9.62965 3.71562C9.87736 3.96333 10.2489 3.96333 10.4966 3.71562L11.7352 2.47708C12.5402 1.67203 13.593 1.23854 14.7077 1.23854C15.8224 1.23854 16.8751 1.67203 17.6802 2.47708C19.2903 4.08718 19.2903 6.75005 17.6802 8.42208Z" fill="#95A3BA"/>
</svg>
