<svg width="22" height="23" viewBox="0 0 22 23" fill="none" xmlns="http://www.w3.org/2000/svg">
<path d="M11.4853 17.4559H1.55888V5.54411H9.50006V4.22058H1.55888V2.89705C1.55888 2.49999 1.82359 2.23529 2.22065 2.23529H10.1618C10.5589 2.23529 10.8236 2.49999 10.8236 2.89705V3.55882H12.1471V2.89705C12.1471 1.77205 11.2868 0.911758 10.1618 0.911758H2.22065C1.09565 0.911758 0.235352 1.77205 0.235352 2.89705V20.1029C0.235352 21.2279 1.09565 22.0882 2.22065 22.0882H10.1618C11.2868 22.0882 12.1471 21.2279 12.1471 20.1029V17.4559H11.4853ZM10.1618 20.7647H2.22065C1.82359 20.7647 1.55888 20.5 1.55888 20.1029V18.7794H10.8236V20.1029C10.8236 20.5 10.4927 20.7647 10.1618 20.7647Z" fill="white"/>
<path d="M15.4559 4.22058C12.1471 4.22058 9.5 6.86764 9.5 10.1765C9.5 11.3676 9.83091 12.5588 10.5588 13.5514L9.76472 15.8676L12.0809 15.0735C13.0735 15.7353 14.2647 16.1323 15.4559 16.1323C18.7647 16.1323 21.4118 13.4853 21.4118 10.1765C21.4118 6.86764 18.7647 4.22058 15.4559 4.22058ZM15.4559 14.8088C14.3971 14.8088 13.4045 14.4779 12.6103 13.8162L12.3456 13.6176L11.8824 13.75L12.0147 13.2868L11.8162 13.022C11.1544 12.2279 10.8235 11.2353 10.8235 10.1765C10.8235 7.59558 12.875 5.54411 15.4559 5.54411C18.0368 5.54411 20.0882 7.59558 20.0882 10.1765C20.0882 12.7573 18.0368 14.8088 15.4559 14.8088Z" fill="white"/>
</svg>
