<svg width="13" height="12" viewBox="0 0 13 12" fill="none" xmlns="http://www.w3.org/2000/svg">
<path d="M12.8106 0.846908C12.7882 1.31549 12.5192 3.00239 12.2501 4.80643L11.443 10.1717C11.443 10.1717 11.3757 10.9449 10.8153 11.0854C10.2548 11.226 9.33554 10.6169 9.1786 10.4763C9.04408 10.3826 6.73483 8.83624 5.88287 8.08651C5.65867 7.87565 5.38963 7.47736 5.90529 6.98534C7.07113 5.86074 8.48358 4.455 9.33554 3.56469C9.71667 3.16639 10.1202 2.2058 8.48358 3.35383L3.8875 6.58705C3.8875 6.58705 3.37184 6.93848 2.38536 6.61048C1.39889 6.3059 0.25547 5.88417 0.25547 5.88417C0.25547 5.88417 -0.529227 5.36873 0.815968 4.82986L8.41632 1.54978C9.15618 1.19834 11.712 0.120604 11.712 0.120604C11.712 0.120604 12.9003 -0.324549 12.8106 0.846908Z" fill="#07433E"/>
</svg>
