<svg width="13" height="18" viewBox="0 0 13 18" fill="none" xmlns="http://www.w3.org/2000/svg">
<path d="M0 5.44808L1.03991 15.8537V17.4337H11.4391V15.8537L12.479 5.55704V3.86816H0V5.44808ZM1.03991 4.90328H11.4391V5.39359L10.3991 15.6903V16.2896H2.07983V15.7448L1.03991 5.33911V4.90328Z" fill="#95A3BA"/>
<path d="M3.11292 5.9699L2.08008 6.09717L3.11858 15.3499L4.15142 15.2226L3.11292 5.9699Z" fill="#95A3BA"/>
<path d="M9.33356 5.96014L8.2915 15.2119L9.32424 15.3396L10.3663 6.08784L9.33356 5.96014Z" fill="#95A3BA"/>
<path d="M8.31931 1.6344V0H4.15966V1.6344H0V2.72399H12.479V1.6344H8.31931ZM5.19957 1.0896H7.2794V1.6344H5.19957V1.0896Z" fill="#95A3BA"/>
</svg>
