<svg width="21" height="18" viewBox="0 0 21 18" fill="none" xmlns="http://www.w3.org/2000/svg">
<path d="M18.8365 16.7374H1.74738V2.01836H18.8365V4.51312H20.0839V0.833336H0.5V17.9848H20.0839V11.8103H18.8365V16.7374Z" fill="#00A373"/>
<path d="M4.80369 3.26597V5.13704H2.93262V6.32205H4.80369V8.19312H5.98869V6.32205H7.85976V5.13704H5.98869V3.26597H4.80369Z" fill="#00A373"/>
<path d="M17.6515 5.44888L10.292 12.8084V15.4903H12.9739L20.3334 8.13074L17.6515 5.44888ZM12.4749 14.3053H11.477V13.3074L12.4749 14.3053ZM12.3502 12.4342L17.5892 7.19521L18.5871 8.19311L13.3481 13.4321L12.3502 12.4342Z" fill="#00A373"/>
<path d="M9.04477 14.3048H2.93262V15.5522H9.04477V14.3048Z" fill="#00A373"/>
<path d="M17.6517 14.3048H16.4043V15.5522H17.6517V14.3048Z" fill="#00A373"/>
</svg>
