<svg width="18" height="20" viewBox="0 0 18 20" fill="none" xmlns="http://www.w3.org/2000/svg">
<path d="M12.9999 8C12.9999 10.209 11.2089 12 8.9999 12C6.7909 12 4.9999 10.209 4.9999 8M1.0199 5.07H16.9799M1.3099 4.527L3.3999 1.787C3.7779 1.291 4.3659 1 4.9899 1H13.0099C13.6339 1 14.2219 1.291 14.5999 1.787L16.6899 4.527C16.9559 4.875 17.0999 5.302 17.0999 5.74V17C17.0999 18.105 16.2049 19 15.0999 19H2.8999C1.7949 19 0.899902 18.105 0.899902 17V5.74C0.899902 5.302 1.0439 4.876 1.3099 4.527Z" stroke="#FF4305" stroke-width="1.5" stroke-linecap="round" stroke-linejoin="round"/>
</svg>
