<svg width="20" height="20" viewBox="0 0 20 20" fill="none" xmlns="http://www.w3.org/2000/svg">
<path d="M4.25 6C4.25 6.41421 4.58579 6.75 5 6.75C5.41421 6.75 5.75 6.41421 5.75 6H4.25ZM14 14.25C13.5858 14.25 13.25 14.5858 13.25 15C13.25 15.4142 13.5858 15.75 14 15.75V14.25ZM5.65533 12.3787C5.36244 12.0858 4.88756 12.0858 4.59467 12.3787C4.30178 12.6716 4.30178 13.1464 4.59467 13.4393L5.65533 12.3787ZM6.709 14.493L6.17867 15.0233C6.31934 15.164 6.51012 15.243 6.70905 15.243C6.90799 15.243 7.09876 15.1639 7.23941 15.0233L6.709 14.493ZM10.6964 11.5653C10.9893 11.2723 10.9892 10.7974 10.6963 10.5046C10.4033 10.2117 9.92844 10.2118 9.63559 10.5048L10.6964 11.5653ZM12 18.25H3V19.75H12V18.25ZM3 18.25C2.30921 18.25 1.75 17.6908 1.75 17H0.25C0.25 18.5192 1.48079 19.75 3 19.75V18.25ZM1.75 17V8H0.25V17H1.75ZM1.75 8C1.75 7.30921 2.30921 6.75 3 6.75V5.25C1.48079 5.25 0.25 6.48079 0.25 8H1.75ZM3 6.75H12V5.25H3V6.75ZM12 6.75C12.6908 6.75 13.25 7.30921 13.25 8H14.75C14.75 6.48079 13.5192 5.25 12 5.25V6.75ZM13.25 8V17H14.75V8H13.25ZM13.25 17C13.25 17.6908 12.6908 18.25 12 18.25V19.75C13.5192 19.75 14.75 18.5192 14.75 17H13.25ZM5.75 6V3H4.25V6H5.75ZM5.75 3C5.75 2.30921 6.30921 1.75 7 1.75V0.25C5.48079 0.25 4.25 1.48079 4.25 3H5.75ZM7 1.75H17V0.25H7V1.75ZM17 1.75C17.6908 1.75 18.25 2.30921 18.25 3H19.75C19.75 1.48079 18.5192 0.25 17 0.25V1.75ZM18.25 3V13H19.75V3H18.25ZM18.25 13C18.25 13.6908 17.6908 14.25 17 14.25V15.75C18.5192 15.75 19.75 14.5192 19.75 13H18.25ZM17 14.25H14V15.75H17V14.25ZM4.59467 13.4393L6.17867 15.0233L7.23933 13.9627L5.65533 12.3787L4.59467 13.4393ZM7.23941 15.0233L10.6964 11.5653L9.63559 10.5048L6.17859 13.9628L7.23941 15.0233Z" fill="#95A3BA"/>
</svg>
