<svg width="29" height="29" viewBox="0 0 29 29" fill="none" xmlns="http://www.w3.org/2000/svg">
<path d="M27.8501 21.5061L23.8296 17.4856C22.9158 16.6632 21.7279 16.6632 20.9055 17.3942C20.9055 17.3942 20.8141 17.3942 20.8141 17.4856L18.6211 19.6786C17.9815 20.3182 16.885 20.3182 16.3367 19.6786L12.9558 16.2977L9.57494 12.9168C8.93531 12.2772 8.93531 11.1807 9.57494 10.6324L11.768 8.43942C11.768 8.43942 11.768 8.34804 11.8593 8.34804C12.2248 7.98253 12.4076 7.43428 12.4076 6.88602C12.4076 6.33777 12.2248 5.78951 11.8593 5.424L11.768 5.33265L7.74743 1.3121C6.92505 0.489717 5.5544 0.489717 4.73201 1.3121L2.08213 3.96202C-0.56777 6.61191 -0.202256 14.2875 7.29055 22.0544C12.2248 26.8973 17.2505 28.7248 20.8141 28.7248C22.8244 28.7248 24.3778 28.1766 25.3829 27.1714L28.0328 24.5215C28.4897 24.0647 28.6725 23.5164 28.6725 22.9681C28.4897 22.5113 28.2156 21.8716 27.8501 21.5061ZM5.82853 2.5C6.01129 2.40862 6.19404 2.40862 6.37679 2.5L10.3059 6.42914C10.3059 6.42914 10.3059 6.42915 10.3973 6.52052C10.5801 6.70328 10.5801 6.88603 10.3973 7.06878C10.3973 7.06878 10.3973 7.06879 10.3059 7.16016L9.84906 7.61704L5.28027 3.04826L5.82853 2.5ZM23.9209 25.9835C22.0934 27.811 15.3316 27.7197 8.38704 20.7751C1.62524 13.8306 1.44251 7.06878 3.17864 5.24127L4.0924 4.32751L8.66119 8.8963L8.20431 9.35318C6.83367 10.7238 6.83367 12.8254 8.20431 14.1961L11.5852 17.577L14.9661 20.9579C15.6057 21.5975 16.5195 21.963 17.3419 21.963C18.1643 21.963 19.1694 21.5975 19.7176 20.9579L20.1745 20.501L24.7433 25.0698L23.9209 25.9835ZM26.5708 23.2423L26.0226 23.7905L21.4538 19.2217L21.9107 18.7649C21.9107 18.7649 21.9107 18.7649 22.002 18.6735C22.1848 18.4907 22.3675 18.4907 22.5503 18.6735C22.5503 18.6735 22.5503 18.6735 22.6417 18.7649L26.5708 22.694C26.7536 22.8768 26.7536 23.0595 26.5708 23.2423Z" fill="#FF3800"/>
<path d="M19.5342 14.9281H21.3617C21.3617 10.9989 18.1635 7.80078 14.2344 7.80078V9.62829C17.1584 9.62829 19.5342 12.0041 19.5342 14.9281Z" fill="#FF3800"/>
<path d="M23.0978 14.9292H24.9253C24.9253 8.98983 20.0824 4.23828 14.2344 4.23828V6.06579C19.0773 6.06579 23.0978 10.0863 23.0978 14.9292Z" fill="#FF3800"/>
<path d="M26.661 14.928H28.4885C28.4885 7.06972 22.0923 0.582031 14.1426 0.582031V2.40954C21.0871 2.40954 26.661 8.07485 26.661 14.928Z" fill="#FF3800"/>
</svg>
