<svg width="17" height="16" viewBox="0 0 17 16" fill="none" xmlns="http://www.w3.org/2000/svg">
<path d="M16.0466 4.75802V3.82508H14.1341V1.95919H12.2682V0H11.3353V1.95919H9.74926V0H8.81632V1.95919H7.23032V0H6.29737V1.95919H4.71136V0H3.77841V1.95919H1.91252V3.82508H0V4.75802H1.91252V6.34402H0V7.27697H1.91252V8.86297H0V9.79591H1.91252V11.3819H0V12.3149H1.91252V14.1808H3.77841V16H4.71136V14.1808H6.29737V16H7.23032V14.1808H8.81632V16H9.74926V14.1808H11.3353V16H12.2682V14.1808H14.1341V12.3149H16.0466V11.3819H14.1341V9.79591H16.0466V8.86297H14.1341V7.27697H16.0466V6.34402H14.1341V4.75802H16.0466ZM13.2478 13.1545H2.98542V2.89213H13.2478V13.1545Z" fill="#FF3800"/>
</svg>
