<svg width="18" height="18" viewBox="0 0 18 18" fill="none" xmlns="http://www.w3.org/2000/svg">
<path fill-rule="evenodd" clip-rule="evenodd" d="M10.6612 7.30293C11.5787 8.2402 11.5787 9.75979 10.6612 10.697C9.74376 11.6343 8.25626 11.6343 7.33878 10.697C6.42131 9.75979 6.42131 8.2402 7.33878 7.30293C8.25626 6.36567 9.74376 6.36567 10.6612 7.30293Z" stroke="#95A3BA" stroke-width="1.5" stroke-linecap="round" stroke-linejoin="round"/>
<path fill-rule="evenodd" clip-rule="evenodd" d="M3.12669 9C3.12669 9.264 3.15018 9.528 3.18151 9.784L1.79976 10.888C1.49347 11.1333 1.40994 11.5716 1.60485 11.9156L2.83346 14.0871C3.0275 14.4311 3.43993 14.576 3.80103 14.4284L5.03834 13.9209C5.28285 13.8204 5.55519 13.8604 5.77446 14.0089C5.96589 14.1387 6.16428 14.2578 6.36963 14.3644C6.60456 14.4862 6.7751 14.704 6.81252 14.9707L7.00133 16.3156C7.05615 16.7084 7.38593 17 7.774 17H10.2251C10.6132 17 10.943 16.7084 10.9978 16.3156L11.1866 14.9716C11.224 14.7049 11.3963 14.4853 11.6321 14.3644C11.8366 14.2596 12.0341 14.1413 12.2247 14.0124C12.4457 13.8631 12.7189 13.8204 12.9643 13.9218L14.199 14.4284C14.5592 14.576 14.9716 14.4311 15.1665 14.0871L16.3952 11.9156C16.5901 11.5716 16.5065 11.1324 16.2002 10.888L14.8185 9.784C14.8498 9.528 14.8733 9.264 14.8733 9C14.8733 8.736 14.8498 8.472 14.8185 8.216L16.2002 7.112C16.5065 6.86667 16.5901 6.42844 16.3952 6.08444L15.1665 3.91289C14.9725 3.56889 14.5601 3.424 14.199 3.57156L12.9643 4.07822C12.7189 4.17867 12.4457 4.13689 12.2247 3.98756C12.0341 3.85867 11.8366 3.74044 11.6321 3.63556C11.3963 3.51467 11.224 3.29511 11.1866 3.02844L10.9987 1.68444C10.9438 1.29156 10.6141 1 10.226 1H7.77487C7.3868 1 7.05702 1.29156 7.0022 1.68444L6.81252 3.03022C6.7751 3.296 6.60369 3.51467 6.36963 3.63644C6.16428 3.74311 5.96589 3.86311 5.77446 3.992C5.55432 4.13956 5.28198 4.17956 5.03747 4.07911L3.80103 3.57156C3.43993 3.424 3.0275 3.56889 2.83346 3.91289L1.60485 6.08444C1.40994 6.42844 1.49347 6.86756 1.79976 7.112L3.18151 8.216C3.15018 8.472 3.12669 8.736 3.12669 9Z" stroke="#95A3BA" stroke-width="1.5" stroke-linecap="round" stroke-linejoin="round"/>
</svg>
