<svg width="52" height="48" viewBox="0 0 52 48" fill="none" xmlns="http://www.w3.org/2000/svg">
<g clip-path="url(#clip0_38_383)">
<path d="M48.8759 11.4326C46.842 7.89602 43.8472 5.00763 40.2383 3.10205C36.5494 1.12122 32.2703 0.132126 27.4011 0.134771H11.9678V19.9179L20.1607 11.4842V7.71163H27.1946C29.4222 7.69122 31.6378 8.03836 33.7522 8.73907C35.6901 9.38407 37.4702 10.4303 38.976 11.8095C40.4985 13.239 41.6871 14.9862 42.4572 16.9268C44.1404 21.5086 44.1404 26.5388 42.4572 31.1206C41.6881 33.0629 40.4994 34.8116 38.976 36.2419C37.4702 37.6211 35.6901 38.6673 33.7522 39.3123C31.6376 40.0117 29.422 40.3575 27.1946 40.3358H20.1607V25.2614L11.9678 33.592V47.873H27.4011C32.2703 47.873 36.5494 46.8825 40.2383 44.9017C43.8481 42.9974 46.8432 40.1087 48.8759 36.5711C50.9479 33.0009 51.9839 28.8039 51.9839 23.9801C51.9839 19.1563 50.9479 14.9592 48.8759 11.389" fill="#0B0C0B"/>
<path d="M26.6867 23.9482L23.5508 27.1575V31.6838L27.8696 27.2646L35.0821 33.6117V29.383L28.8024 23.8689C28.5082 23.6056 28.1232 23.4668 27.7285 23.4816C27.3339 23.4964 26.9604 23.6637 26.6867 23.9482ZM26.6867 14.0626L8.51053 32.6715L0 24.3608V28.7839L7.45863 36.0672C7.74452 36.3514 8.13117 36.5111 8.53435 36.5115C8.74019 36.5108 8.94381 36.469 9.13329 36.3886C9.32277 36.3082 9.4943 36.1909 9.63786 36.0434L27.8696 17.379L35.0821 23.7261V19.5013L28.8024 13.9793C28.5073 13.7175 28.1222 13.5799 27.7278 13.5955C27.3334 13.611 26.9604 13.7784 26.6867 14.0626ZM8.51053 23.1866L0 14.8758V19.299L7.45863 26.5863C7.60296 26.7285 7.7741 26.8407 7.96213 26.9164C8.15016 26.9921 8.35136 27.0297 8.55405 27.0271C8.75674 27.0245 8.95691 26.9818 9.14295 26.9014C9.32899 26.8209 9.49721 26.7044 9.63786 26.5585L20.1609 15.7922V11.2461L8.51053 23.1866Z" fill="url(#paint0_linear_38_383)"/>
</g>
<defs>
<linearGradient id="paint0_linear_38_383" x1="0" y1="24.1401" x2="35.0821" y2="24.1401" gradientUnits="userSpaceOnUse">
<stop stop-color="#FFA130"/>
<stop offset="0.11" stop-color="#FF8F28"/>
<stop offset="0.33" stop-color="#FF6113"/>
<stop offset="0.5" stop-color="#FF3800"/>
<stop offset="0.62" stop-color="#FF4A08"/>
<stop offset="0.86" stop-color="#FF7A1E"/>
<stop offset="1" stop-color="#FF972B"/>
</linearGradient>
<clipPath id="clip0_38_383">
<rect width="52" height="48" fill="white"/>
</clipPath>
</defs>
</svg>
